<?xml version="1.0" encoding="iso-8859-1"?>
<!-- Uploaded to: SVG Repo, www.svgrepo.com, Generator: SVG Repo Mixer Tools -->
<svg fill="#000000" height="800px" width="800px" version="1.1" id="Layer_1" xmlns="http://www.w3.org/2000/svg" xmlns:xlink="http://www.w3.org/1999/xlink" 
	 viewBox="0 0 512 512" xml:space="preserve">
<g>
	<g>
		<path d="M256,119.467c-75.093,0-136.533,61.44-136.533,136.533S180.907,392.533,256,392.533S392.533,331.093,392.533,256
			S331.093,119.467,256,119.467z M256,375.467c-65.707,0-119.467-53.76-119.467-119.467S190.293,136.533,256,136.533
			S375.467,190.293,375.467,256S321.707,375.467,256,375.467z"/>
	</g>
</g>
<g>
	<g>
		<path d="M335.36,354.133c-3.413-3.413-5.12-4.267-6.827-5.12l-37.547-17.92c-1.707-0.853-3.413-2.56-3.413-4.267v-11.093
			c0.853-0.853,10.24-16.213,12.8-23.893c5.973-3.413,10.24-9.387,10.24-17.067v-15.36c0-4.267-1.707-8.533-4.267-11.947V230.4
			c0.853-6.827-0.853-42.667-50.347-42.667c-23.893,0-39.253,7.68-46.933,21.333c-4.267,7.68-5.12,14.507-5.12,21.333v17.92
			c-2.56,3.413-4.267,7.68-4.267,11.947v15.36c0,5.973,2.56,11.093,6.827,14.507c1.707,5.12,11.093,23.04,12.8,26.453v10.24
			c0,1.707-0.853,3.413-2.56,4.267l-34.987,17.92c-2.56,0.853-4.267,3.413-7.68,7.68s0.853,5.12,5.12,7.68
			c23.04,15.36,46.08,28.16,74.24,28.16c29.013,0,56.32-9.387,80.213-25.6C338.773,363.52,338.773,357.547,335.36,354.133z
			 M253.44,373.76c-19.627,1.707-40.107-3.413-57.173-12.8l29.013-15.36c7.68-3.413,11.947-11.093,11.947-19.627V312.32
			c0-1.707-0.853-4.267-1.707-5.973c0,0-0.853-0.853-1.707-2.56c-1.707-2.56-3.413-5.12-5.12-7.68
			c-2.56-4.267-4.267-9.387-5.12-14.507c-0.853-2.56-1.707-4.267-3.413-5.12c-0.853-0.853-1.707-1.707-1.707-2.56v-15.36
			c0-0.853,0-0.853,0.853-1.707c1.707-1.707,2.56-4.267,2.56-6.827v-21.333v-0.853c0-3.413,0-7.68,2.56-11.093
			c4.267-7.68,13.653-12.8,31.573-12.8c17.92,0,27.307,5.12,31.573,12.8c2.56,4.267,2.56,7.68,2.56,11.093v0.853v21.333
			c0,2.56,0.853,5.12,2.56,6.827c0.853,0.853,0.853,0.853,0.853,1.707v15.36c0,0.853-0.853,1.707-2.56,2.56
			c-2.56,0.853-5.12,2.56-5.973,5.12c-2.56,7.68-11.947,22.187-12.8,23.04c-1.707,1.707-2.56,3.413-2.56,5.973v13.653
			c0,8.533,5.12,16.213,12.8,19.627L312.32,358.4C294.4,368.64,274.773,373.76,253.44,373.76z"/>
	</g>
</g>
<g>
	<g>
		<path d="M256,0c-23.893,0-42.667,18.773-42.667,42.667c0,23.893,18.773,42.667,42.667,42.667
			c23.893,0,42.667-18.773,42.667-42.667C298.667,18.773,279.893,0,256,0z M256,68.267c-14.507,0-25.6-11.093-25.6-25.6
			c0-14.507,11.093-25.6,25.6-25.6c14.507,0,25.6,11.093,25.6,25.6C281.6,57.173,270.507,68.267,256,68.267z"/>
	</g>
</g>
<g>
	<g>
		<path d="M256,426.667c-23.893,0-42.667,18.773-42.667,42.667C213.333,493.227,232.107,512,256,512
			c23.893,0,42.667-18.773,42.667-42.667C298.667,445.44,279.893,426.667,256,426.667z M256,494.933
			c-14.507,0-25.6-11.093-25.6-25.6c0-14.507,11.093-25.6,25.6-25.6c14.507,0,25.6,11.093,25.6,25.6
			C281.6,483.84,270.507,494.933,256,494.933z"/>
	</g>
</g>
<g>
	<g>
		<path d="M469.333,213.333c-23.893,0-42.667,18.773-42.667,42.667c0,23.893,18.773,42.667,42.667,42.667
			C493.227,298.667,512,279.893,512,256C512,232.107,493.227,213.333,469.333,213.333z M469.333,281.6
			c-14.507,0-25.6-11.093-25.6-25.6c0-14.507,11.093-25.6,25.6-25.6c14.507,0,25.6,11.093,25.6,25.6
			C494.933,270.507,483.84,281.6,469.333,281.6z"/>
	</g>
</g>
<g>
	<g>
		<path d="M42.667,213.333C18.773,213.333,0,232.107,0,256c0,23.893,18.773,42.667,42.667,42.667
			c23.893,0,42.667-18.773,42.667-42.667C85.333,232.107,66.56,213.333,42.667,213.333z M42.667,281.6
			c-14.507,0-25.6-11.093-25.6-25.6c0-14.507,11.093-25.6,25.6-25.6c14.507,0,25.6,11.093,25.6,25.6
			C68.267,270.507,57.173,281.6,42.667,281.6z"/>
	</g>
</g>
<g>
	<g>
		<path d="M256,68.267c-5.12,0-8.533,3.413-8.533,8.533V128c0,5.12,3.413,8.533,8.533,8.533s8.533-3.413,8.533-8.533V76.8
			C264.533,71.68,261.12,68.267,256,68.267z"/>
	</g>
</g>
<g>
	<g>
		<path d="M256,375.467c-5.12,0-8.533,3.413-8.533,8.533v51.2c0,5.12,3.413,8.533,8.533,8.533s8.533-3.413,8.533-8.533V384
			C264.533,378.88,261.12,375.467,256,375.467z"/>
	</g>
</g>
<g>
	<g>
		<path d="M435.2,247.467H384c-5.12,0-8.533,3.413-8.533,8.533s3.413,8.533,8.533,8.533h51.2c5.12,0,8.533-3.413,8.533-8.533
			S440.32,247.467,435.2,247.467z"/>
	</g>
</g>
<g>
	<g>
		<path d="M128,247.467H76.8c-5.12,0-8.533,3.413-8.533,8.533s3.413,8.533,8.533,8.533H128c5.12,0,8.533-3.413,8.533-8.533
			S133.12,247.467,128,247.467z"/>
	</g>
</g>
<g>
	<g>
		<path d="M135.68,75.093c-17.067-17.067-44.373-17.067-60.587,0c-17.067,17.067-17.067,43.52,0,60.587
			c17.067,17.067,43.52,17.067,60.587,0S152.747,92.16,135.68,75.093z M122.88,122.88c-10.24,10.24-26.453,10.24-35.84,0
			c-10.24-10.24-10.24-26.453,0-35.84c10.24-10.24,26.453-10.24,35.84,0C133.12,97.28,133.12,113.493,122.88,122.88z"/>
	</g>
</g>
<g>
	<g>
		<path d="M436.907,376.32c-17.067-17.067-43.52-17.067-60.587,0c-17.067,17.067-17.067,43.52,0,60.587
			c17.067,17.067,43.52,17.067,60.587,0C453.973,420.693,453.973,393.387,436.907,376.32z M424.96,424.96
			c-10.24,10.24-26.453,10.24-35.84,0c-10.24-10.24-10.24-26.453,0-35.84c9.387-10.24,25.6-10.24,35.84,0
			S435.2,415.573,424.96,424.96z"/>
	</g>
</g>
<g>
	<g>
		<path d="M436.907,75.093c-17.067-17.067-43.52-17.067-60.587,0c-17.067,17.067-17.067,43.52,0,60.587
			c17.067,16.213,44.373,16.213,60.587,0C453.973,118.613,453.973,92.16,436.907,75.093z M424.96,122.88
			c-10.24,10.24-26.453,10.24-35.84,0c-10.24-10.24-10.24-26.453,0-35.84c10.24-10.24,26.453-10.24,35.84,0
			C435.2,97.28,435.2,113.493,424.96,122.88z"/>
	</g>
</g>
<g>
	<g>
		<path d="M135.68,376.32c-17.067-17.067-43.52-17.067-60.587,0s-17.067,43.52,0,60.587c17.067,17.067,43.52,17.067,60.587,0
			C151.893,420.693,151.893,393.387,135.68,376.32z M122.88,424.96c-9.387,10.24-25.6,10.24-35.84,0
			c-10.24-10.24-10.24-26.453,0-35.84c10.24-10.24,26.453-10.24,35.84,0C133.12,399.36,133.12,415.573,122.88,424.96z"/>
	</g>
</g>
<g>
	<g>
		<path d="M170.667,159.573l-35.84-35.84c-3.413-3.413-8.533-3.413-11.947,0c-2.56,2.56-2.56,8.533,0,11.947l35.84,35.84
			c3.413,3.413,8.533,3.413,11.947,0S174.08,162.987,170.667,159.573z"/>
	</g>
</g>
<g>
	<g>
		<path d="M388.267,376.32l-35.84-35.84c-3.413-3.413-8.533-3.413-11.947,0c-3.413,3.413-3.413,8.533,0,11.947l35.84,35.84
			c3.413,3.413,8.533,3.413,11.947,0C391.68,384.853,391.68,379.733,388.267,376.32z"/>
	</g>
</g>
<g>
	<g>
		<path d="M388.267,122.88c-2.56-2.56-8.533-2.56-11.947,0l-35.84,35.84c-3.413,3.413-3.413,8.533,0,11.947
			c3.413,3.413,8.533,3.413,11.947,0l35.84-35.84C391.68,131.413,391.68,126.293,388.267,122.88z"/>
	</g>
</g>
<g>
	<g>
		<path d="M171.52,340.48c-3.413-3.413-8.533-3.413-11.947,0l-35.84,35.84c-3.413,3.413-3.413,8.533,0,11.947s8.533,3.413,11.947,0
			l35.84-35.84C174.933,349.013,174.933,343.893,171.52,340.48z"/>
	</g>
</g>
</svg>