<?xml version="1.0" encoding="iso-8859-1"?>
<!-- Uploaded to: SVG Repo, www.svgrepo.com, Generator: SVG Repo Mixer Tools -->
<svg fill="#000000" version="1.1" id="Capa_1" xmlns="http://www.w3.org/2000/svg" xmlns:xlink="http://www.w3.org/1999/xlink" 
	 viewBox="0 0 60 60" xml:space="preserve">
<g>
	<g>
		<path d="M59,16c0.6,0,1-0.4,1-1V1c0-0.6-0.4-1-1-1H1C0.4,0,0,0.4,0,1v14c0,0.6,0.4,1,1,1h3v6H1c-0.6,0-1,0.4-1,1v14
			c0,0.6,0.4,1,1,1h3v6H1c-0.6,0-1,0.4-1,1v14c0,0.6,0.4,1,1,1h58c0.6,0,1-0.4,1-1V45c0-0.6-0.4-1-1-1h-3v-6h3c0.6,0,1-0.4,1-1V23
			c0-0.6-0.4-1-1-1h-3v-6H59z M2,2h56v12h-3H5H2V2z M58,58H2V46h3h50h3V58z M54,44H6v-6h48V44z M58,36h-3H5H2V24h3h50h3V36z M54,22
			H6v-6h48V22z"/>
		<rect x="5" y="5" width="2" height="6"/>
		<rect x="10" y="5" width="2" height="6"/>
		<rect x="15" y="5" width="2" height="6"/>
		<rect x="20" y="5" width="2" height="6"/>
		<rect x="25" y="5" width="2" height="6"/>
		<rect x="30" y="5" width="2" height="6"/>
		<rect x="37" y="5" width="18" height="2"/>
		<rect x="44" y="9" width="11" height="2"/>
		<rect x="37" y="9" width="5" height="2"/>
		<rect x="41" y="27" width="14" height="2"/>
		<rect x="5" y="27" width="15" height="2"/>
		<rect x="41" y="31" width="14" height="2"/>
		<rect x="5" y="31" width="15" height="2"/>
		<rect x="5" y="49" width="22" height="2"/>
		<rect x="5" y="53" width="22" height="2"/>
		<rect x="23" y="27" width="3" height="2"/>
		<rect x="29" y="27" width="3" height="2"/>
		<rect x="35" y="27" width="3" height="2"/>
		<rect x="23" y="31" width="3" height="2"/>
		<rect x="29" y="31" width="3" height="2"/>
		<rect x="35" y="31" width="3" height="2"/>
		<rect x="30" y="49" width="3" height="2"/>
		<rect x="36" y="49" width="3" height="2"/>
		<rect x="42" y="49" width="3" height="2"/>
		<rect x="30" y="53" width="3" height="2"/>
		<rect x="36" y="53" width="3" height="2"/>
		<rect x="42" y="53" width="3" height="2"/>
		<rect x="48" y="49" width="2" height="6"/>
		<rect x="53" y="49" width="2" height="6"/>
	</g>
</g>
</svg>